<svg viewBox="0 0 800 800" xmlns="http://www.w3.org/2000/svg"><path d="M-48.105600212202944,452.3529326663813 L-48.5090788332833,421.03674408595964 M-75.72485374577411,468.1758490017522 L-76.14402698021468,436.85098314760046 M-48.105600212202944,452.3529326663813 L-75.72485374577411,468.1758490017522 M-48.5090788332833,421.03674408595964 L-76.14402698021468,436.85098314760046 M330.01807756872205,675.4975396378857 L-48.105600212202944,452.3529326663813 M5.175161957956789,452.68294620931056 L-48.5090788332833,421.03674408595964 M5.249968232892684,458.95246387450686 L5.175161957956789,452.68294620931056 M275.4563292688431,618.2708814343667 L5.249968232892684,458.95246387450686 M275.41155579720834,611.9839890195847 L275.4563292688431,618.2708814343667 M329.82473997843766,644.0598943391823 L275.41155579720834,611.9839890195847 M330.01807756872205,675.4975396378857 L329.82473997843766,644.0598943391823 M-75.72485374577411,468.1758490017522 L302.3940026688947,691.5713250483861 M302.3940026688947,691.5713250483861 L302.184962333767,660.1250069526809 M247.77226666176125,628.0128985710329 L302.184962333767,660.1250069526809 M247.82018194503192,634.3015280949679 L247.77226666176125,628.0128985710329 M-22.382728335633374,474.80391847132717 L247.82018194503192,634.3015280949679 M-22.460675258502306,468.5326630843781 L-22.382728335633374,474.80391847132717 M-76.14402698021468,436.85098314760046 L-22.460675258502306,468.5326630843781 M302.3940026688947,691.5713250483861 L330.01807756872205,675.4975396378857 M-22.460675258502306,468.5326630843781 L5.175161957956789,452.68294620931056 M5.249968232892684,458.95246387450686 L-22.382728335633374,474.80391847132717 M247.82018194503192,634.3015280949679 L275.4563292688431,618.2708814343667 M275.41155579720834,611.9839890195847 L247.77226666176125,628.0128985710329 M302.184962333767,660.1250069526809 L329.82473997843766,644.0598943391823" stroke="black"  stroke-width="4"  fill="red"/>
<path d="M497.8617186007972,139.57130021116456 L497.76493075814744,108.42867495161374 M470.8504652828277,155.04589661342584 L470.7386632938691,123.89459340934036 M497.8617186007972,139.57130021116456 L470.8504652828277,155.04589661342584 M497.76493075814744,108.42867495161374 L470.7386632938691,123.89459340934036 M876.0305978914873,357.785974094404 L497.8617186007972,139.57130021116456 M551.459624973249,139.37765336715876 L497.76493075814744,108.42867495161374 M551.4730620355169,145.61241218338557 L551.459624973249,139.37765336715876 M821.7117982413049,301.40947861597715 L551.4730620355169,145.61241218338557 M821.7284048550573,295.15733993077527 L821.7117982413049,301.40947861597715 M876.1440269802147,326.52185255605235 L821.7284048550573,295.15733993077527 M876.0305978914873,357.785974094404 L876.1440269802147,326.52185255605235 M470.8504652828277,155.04589661342584 L849.0193508958828,373.50316967296374 M849.0193508958828,373.50316967296374 L849.1177658523707,342.2303699733172 M794.7019412739825,310.83085230345694 L849.1177658523707,342.2303699733172 M794.6883388895341,317.0847289806367 L794.7019412739825,310.83085230345694 M524.4496003869738,161.11438008972095 L794.6883388895341,317.0847289806367 M524.4331590943805,154.87788333879223 L524.4496003869738,161.11438008972095 M470.7386632938691,123.89459340934036 L524.4331590943805,154.87788333879223 M849.0193508958828,373.50316967296374 L876.0305978914873,357.785974094404 M524.4331590943805,154.87788333879223 L551.459624973249,139.37765336715876 M551.4730620355169,145.61241218338557 L524.4496003869738,161.11438008972095 M794.6883388895341,317.0847289806367 L821.7117982413049,301.40947861597715 M821.7284048550573,295.15733993077527 L794.7019412739825,310.83085230345694 M849.1177658523707,342.2303699733172 L876.1440269802147,326.52185255605235" stroke="black"  stroke-width="4"  fill="red"/></svg>